<?xml version="1.0" standalone="no"?>
<!DOCTYPE svg PUBLIC "-//W3C//DTD SVG 20010904//EN"
 "http://www.w3.org/TR/2001/REC-SVG-20010904/DTD/svg10.dtd">
<svg version="1.0" xmlns="http://www.w3.org/2000/svg"
 width="618.000000pt" height="618.000000pt" viewBox="0 0 618.000000 618.000000"
 preserveAspectRatio="xMidYMid meet">
<metadata>
Created by potrace 1.11, written by Peter Selinger 2001-2013
</metadata>
<g transform="translate(0.000000,618.000000) scale(0.100000,-0.100000)"
fill="#000000" stroke="none">
<path d="M0 3090 l0 -3090 3090 0 3090 0 0 3090 0 3090 -3090 0 -3090 0 0
-3090z m2070 1229 c35 -16 84 -46 108 -66 63 -51 178 -171 210 -218 15 -22 29
-42 32 -45 3 -3 18 -25 34 -50 50 -77 96 -128 121 -134 14 -4 52 -30 85 -60
33 -29 95 -71 139 -94 43 -22 103 -58 133 -81 30 -22 59 -41 64 -41 6 0 31
-13 55 -29 50 -31 193 -86 279 -106 30 -7 71 -18 90 -24 19 -6 60 -11 90 -11
56 0 262 -34 282 -46 6 -4 65 -11 132 -16 321 -24 340 -25 381 -11 22 7 48 13
58 13 65 0 412 151 526 229 29 20 62 41 72 47 11 6 30 20 42 30 28 24 85 64
91 64 3 0 34 14 70 31 45 22 73 29 91 25 22 -6 25 -12 25 -53 0 -51 -18 -123
-32 -123 -4 0 -8 -5 -8 -11 0 -17 -62 -140 -97 -194 -18 -27 -33 -53 -33 -57
0 -7 30 10 156 86 105 64 183 86 302 86 90 0 104 -3 160 -31 63 -31 135 -103
199 -199 55 -83 100 -243 110 -397 5 -63 3 -73 -11 -73 -10 0 -23 14 -31 33
-22 51 -57 94 -187 224 -148 149 -183 167 -316 161 -45 -3 -88 -10 -94 -16 -7
-7 -20 -12 -30 -12 -10 0 -18 -4 -18 -9 0 -5 -13 -11 -29 -14 -16 -3 -46 -18
-67 -32 -22 -14 -48 -31 -58 -38 -45 -29 -167 -130 -232 -193 -39 -38 -104
-94 -145 -124 -41 -30 -87 -65 -104 -78 -16 -12 -57 -41 -90 -64 -33 -23 -69
-50 -80 -60 -19 -18 -100 -82 -176 -138 -18 -14 -49 -39 -69 -56 -32 -27 -54
-42 -168 -110 -20 -12 -38 -27 -40 -33 -2 -6 -10 -11 -18 -11 -8 0 -44 -13
-79 -30 -35 -16 -99 -37 -142 -45 -43 -9 -103 -21 -133 -28 -81 -18 -667 -16
-787 2 -51 8 -93 17 -93 21 0 4 -12 10 -28 13 -15 3 -79 31 -142 61 -63 31
-120 56 -126 56 -6 0 -17 7 -25 16 -7 8 -29 24 -48 34 -52 27 -233 207 -266
265 -16 28 -46 72 -67 98 -39 50 -115 200 -143 283 -9 27 -22 58 -30 70 -7 12
-17 39 -21 60 -3 21 -13 50 -20 64 -39 73 -67 178 -80 295 -7 67 -11 76 -103
216 -127 193 -150 210 -293 216 -57 3 -110 9 -120 14 -9 5 -30 9 -45 9 -16 0
-48 9 -71 20 -23 11 -53 25 -67 30 -14 5 -25 14 -25 19 0 23 77 65 149 81 116
26 162 52 266 151 52 49 155 125 198 144 45 22 66 25 162 25 102 0 115 -2 175
-31z"/>
<path d="M2770 3260 c0 -5 14 -19 30 -32 l30 -22 0 -200 c0 -111 -5 -218 -11
-239 -6 -21 -22 -46 -39 -59 -17 -12 -30 -25 -30 -30 0 -4 42 -8 94 -8 53 0
98 -4 101 -10 4 -6 -30 -10 -94 -10 -61 0 -101 -4 -101 -10 0 -6 48 -10 125
-10 70 0 125 4 125 9 0 5 -11 22 -24 38 -41 49 -46 69 -45 170 l1 98 46 -137
c45 -133 47 -137 77 -141 28 -4 28 -5 8 -12 -34 -11 -28 -25 11 -25 33 0 35 2
60 73 14 39 39 108 56 152 l29 80 1 -101 c0 -95 -1 -102 -25 -124 -14 -13 -25
-27 -25 -32 0 -4 47 -8 104 -8 59 0 108 -4 111 -10 4 -6 -32 -10 -99 -10 -64
0 -106 -4 -106 -10 0 -6 53 -10 140 -10 77 0 140 4 140 8 0 4 -18 26 -40 47
l-40 39 0 233 0 233 25 16 c30 20 32 34 5 34 -13 0 -18 5 -14 15 5 13 -12 15
-120 15 -69 0 -126 -3 -126 -7 0 -4 11 -19 25 -33 l25 -26 -48 -132 c-26 -73
-49 -132 -52 -132 -3 0 -25 57 -49 127 l-44 126 26 19 c34 24 35 42 3 36 -17
-4 -23 -1 -19 9 4 10 -19 13 -121 13 -75 0 -126 -4 -126 -10z"/>
</g>
</svg>
